<?xml version="1.0" standalone="no"?>
<!DOCTYPE svg PUBLIC "-//W3C//DTD SVG 20010904//EN"
 "http://www.w3.org/TR/2001/REC-SVG-20010904/DTD/svg10.dtd">
<svg version="1.0" xmlns="http://www.w3.org/2000/svg"
 width="893.000000pt" height="883.000000pt" viewBox="0 0 893.000000 883.000000"
 preserveAspectRatio="xMidYMid meet">

<g transform="translate(0.000000,883.000000) scale(0.100000,-0.100000)"
fill="#7c3aed" stroke="none">
<path d="M1510 8819 c-798 -93 -1420 -724 -1500 -1524 -8 -79 -10 -924 -8
-2955 4 -2639 5 -2851 21 -2930 74 -368 228 -660 477 -910 254 -254 562 -413
921 -477 99 -17 233 -18 3044 -18 2811 0 2945 1 3044 18 359 64 667 223 921
477 254 254 413 562 477 921 17 99 18 231 18 2999 0 2729 -1 2900 -18 2990
-68 367 -227 671 -482 925 -247 245 -540 398 -905 472 -79 16 -291 17 -3010
19 -1609 1 -2959 -2 -3000 -7z m5670 -759 c198 -25 418 -111 562 -220 97 -74
246 -235 301 -327 115 -192 166 -363 174 -584 9 -226 -23 -389 -112 -576 -210
-445 -683 -714 -1163 -663 -95 10 -250 47 -293 70 -10 6 -27 10 -39 10 -11 0
-113 -48 -226 -106 -291 -150 -292 -149 -239 148 19 106 35 204 35 217 0 13
-33 74 -74 135 -167 250 -228 443 -230 721 -1 260 60 466 197 670 172 257 473
451 767 494 41 6 86 13 100 15 53 7 159 6 240 -4z m-4614 -158 c54 -28 98 -77
128 -142 l26 -55 0 -325 c0 -196 -4 -340 -11 -363 -30 -111 -187 -189 -282
-141 -18 9 -33 18 -35 19 -2 2 8 14 22 28 38 38 65 100 76 174 13 90 12 496
-1 553 -19 82 -69 111 -122 70 -42 -33 -65 -81 -83 -173 -9 -48 -20 -87 -24
-87 -23 0 -54 138 -48 214 13 158 119 261 259 252 30 -2 73 -13 95 -24z m2158
16 c60 -18 129 -90 155 -162 21 -57 22 -71 19 -395 -3 -326 -4 -337 -25 -378
-55 -102 -195 -151 -277 -98 l-26 17 26 30 c14 17 35 49 47 72 21 39 22 54 25
341 4 323 -1 363 -44 392 -23 15 -28 15 -59 0 -51 -24 -84 -82 -102 -178 -9
-46 -19 -88 -23 -92 -13 -15 -43 77 -48 149 -15 220 139 360 332 302z m-2500
-558 c28 -14 59 -37 70 -52 l19 -27 -52 -56 c-70 -74 -95 -132 -95 -216 0
-127 88 -250 224 -316 47 -23 68 -27 145 -27 142 0 252 54 323 158 59 88 67
135 64 364 l-3 204 718 -4 718 -3 49 -25 c28 -14 58 -37 69 -51 l19 -26 -52
-52 c-70 -70 -95 -127 -94 -216 0 -90 32 -162 102 -232 102 -102 234 -141 362
-109 134 34 230 121 272 246 20 59 21 83 19 263 l-2 197 324 0 325 0 -24 -82
c-40 -142 -49 -215 -48 -398 0 -179 21 -331 59 -441 8 -23 13 -44 10 -47 -2
-3 -945 -4 -2094 -3 -2253 2 -2128 5 -2176 -49 -19 -20 -20 -40 -25 -272 l-5
-249 -36 28 c-55 43 -129 140 -166 220 l-34 73 3 472 3 473 26 56 c51 109 136
179 259 211 56 15 108 17 370 15 303 -2 305 -2 354 -27z m-1373 -1089 c71 -44
113 -94 231 -268 60 -89 139 -193 176 -231 155 -159 335 -261 638 -360 279
-92 372 -147 539 -317 100 -102 175 -160 175 -136 0 18 -40 101 -75 156 -42
67 -44 77 -7 69 72 -16 227 -65 290 -92 127 -53 272 -164 338 -257 36 -50 38
-20 5 51 -17 36 -31 68 -31 70 0 2 14 4 31 4 23 0 49 -15 105 -62 40 -34 103
-78 141 -97 85 -45 107 -80 108 -170 1 -63 1 -64 43 -93 82 -57 202 -91 375
-107 114 -11 128 -20 163 -97 56 -127 58 -307 3 -416 -26 -51 -77 -108 -98
-108 -9 0 -43 20 -76 45 -172 130 -349 190 -638 215 -72 6 -141 18 -175 31
-31 11 -86 32 -122 45 -55 20 -84 24 -186 24 -101 0 -132 -4 -190 -24 -71 -24
-134 -56 -134 -68 0 -3 26 -6 58 -5 143 2 287 -138 401 -390 102 -226 194
-363 293 -438 100 -76 159 -100 250 -100 65 0 81 4 109 24 l32 24 -7 -29 c-36
-144 -257 -317 -435 -341 l-46 -6 47 51 c50 53 67 95 51 121 -9 13 -33 16
-154 16 -135 0 -189 7 -189 23 0 4 21 17 48 29 26 12 63 35 82 51 l34 29 -58
99 c-148 249 -289 386 -500 485 -141 66 -301 77 -502 34 -66 -14 -171 -28
-234 -32 l-115 -6 25 29 c14 16 66 72 117 125 103 107 123 143 123 224 0 48
-4 61 -28 84 -25 25 -36 29 -127 35 -120 9 -222 29 -284 57 l-46 20 25 19 c14
11 76 45 138 76 149 73 182 102 182 158 0 86 -76 169 -223 242 -165 83 -264
158 -313 236 -31 49 -30 53 9 30 40 -26 135 -56 257 -82 156 -34 217 -69 357
-202 69 -66 74 -69 115 -66 43 3 43 4 55 53 11 45 11 54 -11 101 -27 59 -90
123 -161 164 -27 15 -116 55 -196 89 -175 74 -281 137 -377 226 -161 149 -291
376 -358 625 -30 111 -67 206 -132 333 -7 14 15 6 59 -22z m1161 -263 c27 -27
76 -87 110 -131 78 -102 212 -238 301 -303 37 -27 129 -83 205 -123 224 -120
321 -200 377 -310 l26 -52 -62 42 c-77 52 -269 144 -413 198 -60 23 -113 41
-118 41 -5 0 -44 14 -85 30 -132 53 -222 129 -292 249 -27 45 -145 358 -158
419 l-6 24 33 -17 c19 -10 55 -40 82 -67z m2126 -53 c18 -15 36 -43 42 -63 8
-25 10 -180 8 -469 l-3 -433 -28 -27 -27 -28 -291 -5 c-159 -3 -302 -2 -316 2
-52 14 -119 72 -193 165 -41 53 -116 139 -166 192 l-91 96 2 245 c2 135 7 256
13 270 12 30 39 56 72 68 13 5 232 10 486 11 l461 2 31 -26z m1332 7 c69 -34
68 -31 63 -520 -5 -473 -3 -462 -60 -499 -25 -16 -66 -18 -458 -21 -236 -2
-455 0 -484 3 -44 6 -62 14 -88 40 l-34 34 3 454 3 455 25 27 c14 15 34 31 45
35 11 5 229 9 485 9 423 1 468 -1 500 -17z m2254 -573 c76 -180 78 -197 31
-289 -19 -38 -29 -47 -44 -43 -10 2 -88 15 -172 27 l-154 21 -3 76 -3 75 87
100 c107 122 174 194 182 194 4 0 38 -73 76 -161z m-604 -251 l0 -338 -50
-267 c-28 -148 -55 -291 -60 -318 l-10 -50 -66 10 -66 9 6 60 c3 32 6 323 6
645 l0 586 120 0 120 0 0 -337z m-765 -153 c-18 -121 -57 -375 -85 -565 -78
-523 -162 -965 -296 -1560 -36 -157 -83 -368 -106 -470 -23 -102 -43 -187 -45
-189 -8 -11 -53 46 -75 92 -21 47 -23 66 -22 187 1 160 4 177 135 750 312
1362 369 1622 356 1610 -11 -10 -85 -207 -116 -306 -31 -102 -124 -469 -200
-794 -239 -1019 -248 -1055 -324 -1205 -71 -144 -125 -202 -199 -220 -26 -7
-28 -5 -28 27 0 65 44 263 225 1008 47 195 100 411 116 480 80 332 141 565
174 660 89 254 246 486 444 656 41 35 76 63 77 61 2 -2 -12 -102 -31 -222z
m1181 -7 c106 -13 101 -6 80 -103 -8 -36 -18 -59 -25 -57 -7 1 -57 8 -112 14
-82 10 -98 14 -95 27 2 9 7 34 11 56 13 86 2 80 141 63z m31 -262 c2 -2 -1
-41 -8 -86 -11 -76 -13 -81 -33 -76 -11 2 -60 8 -109 12 -74 6 -87 9 -83 23 3
9 10 45 17 80 l12 64 100 -6 c55 -4 102 -8 104 -11z m-2065 -34 l33 -32 0
-273 0 -272 -56 -223 c-31 -123 -61 -227 -66 -230 -6 -4 -211 -9 -455 -11
-494 -4 -490 -4 -525 62 -16 29 -17 75 -18 483 0 486 0 483 53 517 24 15 73
17 514 14 l488 -2 32 -33z m-4180 -76 c-33 -36 -75 -89 -92 -119 l-33 -54 -76
25 c-67 23 -93 26 -219 26 l-144 1 31 26 c37 30 156 90 229 114 82 26 188 43
281 44 l83 1 -60 -64z m6131 -135 c38 -5 70 -11 72 -13 6 -5 -16 -143 -24
-157 -5 -8 -34 -8 -117 1 -60 6 -110 12 -112 13 -3 3 28 147 35 158 6 9 61 9
146 -2z m-6389 -368 c-18 -56 -40 -141 -49 -190 -9 -48 -18 -97 -20 -108 -4
-18 -11 -20 -68 -17 -76 4 -164 -17 -265 -63 -70 -33 -73 -33 -66 -12 22 73
138 222 249 318 62 54 245 183 251 176 1 -1 -13 -48 -32 -104z m6404 93 c9 -5
-20 -201 -31 -212 -2 -2 -39 5 -82 16 -43 11 -94 20 -113 20 -30 0 -34 3 -29
23 3 12 11 55 18 96 l13 74 107 -5 c59 -3 111 -8 117 -12z m-833 -156 c13 -42
59 -66 151 -79 145 -21 481 -88 754 -151 352 -81 321 -77 386 -45 l55 27 40
-26 c49 -33 79 -80 79 -124 0 -40 -42 -85 -105 -112 -82 -35 -88 -34 -141 18
l-49 48 -190 42 c-104 23 -253 55 -330 72 -77 16 -234 50 -350 76 -223 48
-286 54 -333 30 -26 -13 -31 -13 -56 3 -39 26 -76 81 -83 124 -5 32 -2 40 26
66 27 25 79 45 128 50 6 1 14 -8 18 -19z m-5148 -77 c-6 -21 -11 -102 -11
-183 0 -136 3 -156 42 -320 48 -199 140 -480 205 -628 61 -138 153 -290 271
-445 281 -371 330 -441 385 -542 104 -191 182 -411 199 -562 5 -40 6 -73 4
-73 -2 0 -47 39 -101 86 -171 152 -372 272 -472 282 l-48 4 -80 -76 c-133
-127 -289 -186 -491 -186 -59 0 -109 3 -113 6 -3 3 20 20 51 36 175 94 303
252 333 413 21 114 -7 226 -94 379 -100 176 -198 408 -252 598 -58 203 -79
349 -78 543 0 245 33 386 124 536 35 59 123 169 134 169 2 0 -2 -17 -8 -37z
m2052 -19 c11 -11 -25 -91 -57 -126 l-37 -39 -2 48 c-1 26 -5 68 -8 92 l-7 44
53 -7 c30 -4 56 -9 58 -12z m228 -101 c31 -23 32 -25 19 -51 -8 -15 -28 -40
-45 -56 l-31 -30 0 88 c0 95 -2 93 57 49z m-665 -33 c25 -17 75 -67 110 -112
118 -151 154 -193 198 -223 37 -25 53 -30 106 -30 45 0 67 5 81 18 29 26 34
21 27 -25 -23 -142 -85 -209 -170 -181 -27 9 -27 11 -25 76 1 39 -2 67 -8 67
-5 0 -23 -17 -40 -37 l-31 -37 -31 29 c-17 17 -54 66 -83 110 -73 111 -209
375 -192 375 7 0 33 -14 58 -30z m3951 -171 c80 -39 127 -76 127 -97 0 -9 -45
-224 -101 -477 -179 -824 -245 -1138 -294 -1425 -36 -209 -61 -432 -41 -369
28 87 165 595 215 794 27 109 321 1425 321 1438 0 3 24 10 53 16 84 15 167 22
167 12 0 -4 -12 -60 -26 -122 -14 -63 -86 -415 -160 -784 -183 -908 -228
-1082 -326 -1280 -85 -172 -315 -495 -352 -495 -25 0 -81 330 -92 545 -11 237
-1 303 179 1110 52 237 123 556 157 710 84 384 101 455 106 455 3 0 33 -14 67
-31z m-6028 -374 c8 -39 18 -77 20 -86 4 -11 -9 -20 -52 -33 -82 -26 -159 -68
-227 -127 -32 -27 -60 -48 -62 -46 -6 5 34 159 56 216 44 113 90 191 184 311
l51 64 7 -115 c4 -63 14 -146 23 -184z m1259 -4 c10 -18 14 -37 9 -41 -13 -12
-92 -19 -99 -9 -8 13 -6 217 2 230 4 7 21 -24 39 -67 17 -44 40 -94 49 -113z
m-259 -157 c69 -16 221 -15 286 1 24 6 29 1 57 -48 17 -31 63 -103 102 -162
38 -59 70 -112 70 -119 0 -7 -14 -25 -31 -42 -30 -29 -31 -29 -152 -28 -137 0
-247 23 -371 74 -89 37 -120 68 -140 140 -17 61 -36 192 -36 246 l0 35 73 -40
c40 -22 104 -48 142 -57z m3203 56 c81 -15 83 -17 59 -110 l-12 -45 -145 3
c-404 10 -802 -80 -1079 -243 -43 -25 -95 -60 -116 -78 l-39 -34 150 -7 c253
-12 377 -45 530 -144 l76 -49 -33 -19 c-32 -19 -32 -19 -113 8 -45 15 -121 34
-171 43 -107 19 -455 33 -455 18 0 -6 33 -34 72 -64 94 -70 241 -215 307 -304
51 -67 153 -263 166 -315 6 -24 5 -24 -17 5 -128 167 -426 445 -478 445 -9 0
-10 -15 -5 -57 10 -90 -28 -243 -92 -366 l-14 -29 -39 76 c-21 42 -50 92 -64
111 l-26 34 33 44 c112 147 45 386 -129 458 -30 13 -54 26 -54 29 0 20 71 108
125 156 103 91 212 162 360 234 247 121 456 177 785 214 68 8 346 -2 418 -14z
m1016 -272 c55 -29 215 -173 203 -184 -2 -2 -46 16 -98 40 -52 25 -115 51
-141 57 -31 9 -48 19 -48 29 0 27 12 90 17 90 3 0 33 -14 67 -32z m-5082 -241
l30 -108 -26 -59 c-15 -32 -35 -92 -45 -132 -11 -40 -22 -66 -25 -58 -47 134
-52 365 -10 495 24 73 28 75 37 20 4 -27 22 -99 39 -158z m1673 -107 c60 -47
125 -107 147 -133 67 -86 83 -187 41 -275 -16 -34 -17 -34 -67 -29 -28 3 -140
23 -248 46 -370 76 -404 88 -496 175 -84 79 -252 303 -252 337 0 3 30 -2 68
-13 168 -47 365 -61 459 -33 29 9 69 31 94 53 l43 39 52 -41 c28 -23 100 -79
159 -126z m2804 -305 c7 -16 28 -51 47 -78 20 -27 34 -50 32 -52 -3 -2 -292
51 -312 58 -6 2 10 14 37 27 55 26 129 98 148 143 l14 32 11 -50 c6 -27 17
-63 23 -80z m-2376 -18 c84 -74 192 -216 213 -281 42 -125 -25 -369 -135 -496
l-36 -41 -100 34 c-127 43 -448 180 -496 212 -28 18 -58 61 -123 175 -48 84
-102 175 -121 203 -19 29 -31 53 -26 55 5 2 110 -13 232 -33 287 -47 370 -53
403 -31 35 22 57 105 59 215 l2 89 30 -21 c17 -11 61 -47 98 -80z m1671 59 c3
-12 23 -42 43 -64 45 -50 -8 -35 976 -264 84 -19 91 -19 133 -3 24 9 54 30 68
46 30 36 44 31 90 -29 41 -52 62 -109 52 -145 -13 -52 -86 -115 -169 -146 -24
-9 -29 -8 -37 12 -14 34 -45 77 -69 93 -12 9 -148 44 -304 79 -155 35 -383 87
-507 115 -145 33 -236 49 -256 45 -18 -3 -50 -19 -72 -35 l-41 -29 -41 47
c-88 99 -100 156 -45 207 30 29 146 95 166 95 4 0 9 -11 13 -24z m441 -475
c28 -10 89 -27 138 -36 71 -15 87 -21 83 -34 -2 -9 -7 -30 -11 -48 -6 -30 -9
-32 -38 -26 -69 13 -222 55 -231 63 -7 7 0 100 7 100 1 0 25 -9 52 -19z
m-1699 -237 c60 -180 76 -298 53 -405 -10 -47 -14 -53 -55 -71 -24 -10 -81
-28 -127 -40 -70 -18 -100 -20 -207 -15 -135 7 -228 25 -386 77 l-102 34 -12
73 c-6 41 -24 112 -40 158 -16 47 -25 87 -20 90 4 3 70 -21 147 -54 155 -66
349 -131 390 -131 65 0 202 201 259 379 l27 84 19 -37 c10 -20 35 -84 54 -142z
m1774 16 c117 -29 112 -23 89 -114 l-10 -38 -47 7 c-26 3 -84 16 -130 27 l-83
21 6 41 c15 98 15 98 43 90 15 -4 74 -19 132 -34z m-86 -216 c43 -13 86 -24
95 -24 38 -1 44 -14 31 -72 l-12 -54 -124 30 c-73 18 -124 36 -124 43 0 7 5
35 11 63 9 42 14 50 27 44 10 -4 52 -18 96 -30z m-19 -209 c75 -20 96 -30 122
-59 69 -76 32 -167 -94 -230 -95 -47 -171 -32 -229 45 -67 90 -82 164 -42 214
46 59 107 67 243 30z"/>
<path d="M7210 7054 l-385 -385 -155 161 c-166 172 -189 187 -254 169 -81 -22
-124 -91 -111 -177 7 -45 17 -57 223 -265 120 -120 232 -228 250 -239 25 -15
43 -19 75 -15 44 6 62 23 377 352 58 61 201 209 319 329 117 121 220 234 227
252 19 45 18 70 -7 120 -26 54 -72 84 -130 84 l-44 0 -385 -386z"/>
<path d="M2550 4727 c0 -2 44 -34 98 -73 90 -63 100 -73 111 -113 24 -89 89
-140 179 -141 48 0 53 10 18 34 -33 21 -40 49 -21 86 21 40 43 38 90 -10 82
-83 133 -85 212 -8 46 45 59 77 24 58 -43 -23 -93 -11 -196 46 -208 114 -240
124 -411 124 -57 0 -104 -1 -104 -3z"/>
<path d="M3645 4306 c-16 -7 -38 -22 -48 -33 -17 -20 -17 -21 25 -31 64 -17
102 -44 150 -109 l43 -58 3 52 c4 61 -27 144 -62 166 -34 23 -78 28 -111 13z"/>
<path d="M3988 4233 c7 -86 23 -108 62 -83 13 8 10 19 -19 75 -18 36 -36 65
-40 65 -4 0 -6 -26 -3 -57z"/>
</g>
</svg>
